<svg xmlns="http://www.w3.org/2000/svg" width="9" height="6">
    <path fill="#FFF" fill-rule="evenodd" d="M7.947 3.182L5.542 5.91c-.051.057-.123.09-.198.09H3.741c-.106 0-.202-.064-.245-.162-.043-.098-.024-.213.046-.293L5.785 3 3.542.455c-.07-.08-.088-.195-.046-.294C3.539.063 3.635 0 3.741 0h1.603c.075 0 .147.033.198.091l2.405 2.727c.091.103.091.261 0 .364zm-3.473 0L2.069 5.91c-.051.057-.123.09-.198.09H.268c-.106 0-.201-.064-.244-.162-.044-.098-.026-.213.045-.293L2.313 3 .069.455C-.002.375-.019.26.024.161.067.063.162 0 .268 0h1.603c.075 0 .147.033.198.091l2.405 2.727c.091.103.091.261 0 .364z"/>
</svg>
