<svg xmlns="http://www.w3.org/2000/svg" width="14" height="14">
    <path fill="#505050" fill-rule="evenodd" d="M11.615 4.563h-9.23c-.213 0-.385-.168-.385-.375v-.75c0-.518.431-.938.962-.938h2.115v-.375C5.077 1.504 5.594 1 6.231 1h1.538c.637 0 1.154.504 1.154 1.125V2.5h2.115c.531 0 .962.42.962.938v.75c0 .207-.172.375-.385.375zM8.154 2.125c0-.207-.173-.375-.385-.375H6.231c-.212 0-.385.168-.385.375V2.5h2.308v-.375zM2.73 5.313h8.54c.069 0 .123.055.12.122l-.317 6.493C11.044 12.529 10.537 13 9.92 13H4.08c-.617 0-1.124-.471-1.153-1.072L2.61 5.435c-.003-.067.051-.122.12-.122zm5.808 5.812c0 .207.173.375.385.375.213 0 .385-.168.385-.375V6.25c0-.207-.172-.375-.385-.375-.212 0-.385.168-.385.375v4.875zm-1.923 0c0 .207.173.375.385.375.212 0 .385-.168.385-.375V6.25c0-.207-.173-.375-.385-.375-.212 0-.385.168-.385.375v4.875zm-1.923 0c0 .207.172.375.385.375.212 0 .385-.168.385-.375V6.25c0-.207-.173-.375-.385-.375-.213 0-.385.168-.385.375v4.875z"/>
    <path fill="none" fill-rule="evenodd" d="M0 0h14v14H0V0z"/>
</svg>
