<svg xmlns="http://www.w3.org/2000/svg" width="14.5" height="14.5">
    <path fill="none" fill-rule="evenodd" d="M0 0h14v14H0V0z"/>
    <path fill="none" fill-rule="evenodd" stroke="#505050" d="M4 1h6c1.657 0 3 1.343 3 3v6c0 1.657-1.343 3-3 3H4c-1.657 0-3-1.343-3-3V4c0-1.657 1.343-3 3-3z"/>
    <path fill="#505050" fill-rule="evenodd" stroke="#505050" stroke-width=".5" d="M9.701 6.805c-.164 0-.298-.134-.298-.299V5.02L7.01 7.415c-.002.002-.006.001-.008.003L5.019 9.402h1.485c.165 0 .299.134.299.299 0 .165-.134.299-.299.299H4.299C4.132 10 4 9.864 4 9.701V7.494c0-.165.134-.299.299-.299.164 0 .298.134.298.299V8.98L6.99 6.585c.002-.002.006-.001.008-.003l1.983-1.984H7.496c-.165 0-.299-.134-.299-.299 0-.165.134-.299.299-.299h2.205c.167 0 .299.136.299.299v2.207c0 .165-.134.299-.299.299z"/>
</svg>
