<svg xmlns="http://www.w3.org/2000/svg" width="10" height="10">
    <path fill="#505050" fill-rule="evenodd" d="M8.535 1.465C7.591.52 6.335 0 4.999 0c-1.334 0-2.59.52-3.534 1.465C.52 2.409 0 3.664 0 5c0 1.336.52 2.591 1.465 3.536C2.409 9.48 3.665 10 4.999 10c1.336 0 2.592-.52 3.536-1.464.945-.945 1.466-2.2 1.466-3.536 0-1.336-.521-2.591-1.466-3.535zM7.163 6.472c.19.191.19.5 0 .69-.096.096-.221.144-.345.144-.126 0-.251-.048-.346-.144L4.999 5.69 3.528 7.162c-.095.096-.22.144-.345.144-.126 0-.25-.048-.345-.144-.192-.19-.192-.499 0-.69L4.309 5 2.838 3.528c-.192-.191-.192-.5 0-.691.191-.19.499-.19.689 0L4.999 4.31l1.473-1.473c.191-.19.5-.19.691 0 .19.191.19.5 0 .691L5.69 5l1.473 1.472z"/>
</svg>
