<svg xmlns="http://www.w3.org/2000/svg" width="25" height="25">
    <path fill="#505050" fill-rule="evenodd" d="M5 0h15c2.761 0 5 2.238 5 5v15c0 2.761-2.239 5-5 5H5c-2.761 0-5-2.239-5-5V5c0-2.762 2.239-5 5-5z"/>
    <path fill="#FFF" fill-rule="evenodd" d="M19.845 12.811c-.171.171-.449.171-.621 0l-.629-.631-.636.637c-.073-.314-.201-.607-.373-.869l.698-.7c.172-.172.45-.172.621 0l.94.941c.171.172.171.45 0 .622zm-3.234-2.44c-.031-.345-.127-.672-.274-.968l.378-.38v-1.23c0-.243.197-.44.439-.44s.439.197.439.44v1.412c0 .117-.047.228-.129.311l-.853.855zm-6.944.34c-.149 0-.295.012-.438.035v-.129c0-1.021.829-1.851 1.848-1.851h2.819c1.02 0 1.849.83 1.849 1.851v.129c-.143-.023-.29-.035-.439-.035H9.667zm2.819-3.828c.721 0 1.344.412 1.65 1.015-.08-.007-.159-.011-.24-.011h-2.819c-.081 0-.16.003-.239.011.304-.603.928-1.015 1.648-1.015zm1.41-1.004c-.243 0-.465.09-.635.237-.246-.073-.505-.112-.775-.112-.269 0-.528.039-.774.112-.17-.147-.392-.237-.634-.237-.243 0-.44-.197-.44-.44 0-.242.197-.439.439-.439.565 0 1.07.255 1.409.656.34-.401.846-.656 1.41-.656.242 0 .439.197.439.439 0 .243-.196.44-.439.44zM7.509 9.516c-.082-.083-.128-.194-.128-.311V7.793c0-.243.196-.44.438-.44s.439.197.439.44v1.23l.379.38c-.148.296-.243.623-.274.968l-.854-.855zm-.495 3.301l-.636-.637-.629.631c-.172.171-.449.171-.621 0-.171-.172-.171-.45 0-.622l.94-.941c.171-.172.449-.172.62 0l.699.7c-.172.262-.299.555-.373.869zm-.03 3.193c.043.35.119.691.225 1.018l-.361.361v2.172c0 .242-.196.439-.439.439-.242 0-.438-.197-.438-.439v-2.354c0-.117.046-.228.128-.311l.885-.886zm2.683-4.42h5.639c1.02 0 1.848.827 1.848 1.851v1.883c0 2.579-2.094 4.676-4.668 4.676-2.573 0-4.667-2.097-4.667-4.676v-1.883c0-1.024.828-1.851 1.848-1.851zm9.207 5.306c.082.083.128.194.128.311v2.354c0 .242-.196.439-.438.439-.243 0-.439-.197-.439-.439v-2.172l-.361-.361c.106-.327.182-.668.225-1.018l.885.886z"/>
</svg>
