<svg xmlns="http://www.w3.org/2000/svg" width="14.5" height="14.5">
    <path fill="none" fill-rule="evenodd" d="M0 0h14v14H0V0z"/>
    <path fill="none" fill-rule="evenodd" stroke="#505050" d="M4 1h6c1.657 0 3 1.343 3 3v6c0 1.657-1.343 3-3 3H4c-1.657 0-3-1.343-3-3V4c0-1.657 1.343-3 3-3z"/>
    <path fill="#505050" fill-rule="evenodd" stroke="#505050" stroke-width=".3" d="M10.872 3.613L8.253 6.231H9.9c.198 0 .359.161.359.359 0 .198-.161.359-.359.359H7.387h-.001l-.035-.002-.016-.002-.018-.003-.018-.004-.016-.004-.018-.006-.016-.006-.015-.007-.017-.008-.014-.009-.016-.009-.015-.012-.013-.009c-.018-.015-.035-.032-.05-.05l-.01-.013-.011-.016-.009-.015-.009-.015-.008-.016-.007-.016-.006-.016-.006-.017-.004-.016-.004-.018c-.002-.006-.002-.012-.003-.019l-.003-.015-.001-.036V4.077c0-.198.16-.359.359-.359.198 0 .359.161.359.359v1.646l2.618-2.618c.14-.14.368-.14.508 0s.14.367 0 .508zM6.59 10.259c-.198 0-.359-.161-.359-.359V8.253l-2.618 2.619c-.141.14-.368.14-.508 0s-.14-.368 0-.508l2.618-2.618H4.077c-.198 0-.359-.161-.359-.359 0-.199.161-.359.359-.359H6.59l.036.001.015.003c.007.001.013.001.019.003l.018.004.016.004.017.006.016.006.016.007.016.008.015.009.015.009.016.011.013.01c.018.015.035.032.05.05l.009.013.012.015.009.016.009.014.008.017.007.015.006.016.006.017.004.017.004.018.003.018.002.016.002.035V9.9c0 .198-.161.359-.359.359z"/>
</svg>
