<svg xmlns="http://www.w3.org/2000/svg" width="13" height="12">
    <path fill="#505050" fill-rule="evenodd" d="M11.857 11.857c-.095.095-.22.143-.345.143-.124 0-.25-.048-.345-.143L8.642 9.331c-.916.762-2.076 1.238-3.358 1.238C2.371 10.569 0 8.199 0 5.285 0 2.371 2.371 0 5.284 0c2.915 0 5.285 2.371 5.285 5.285 0 1.281-.476 2.441-1.237 3.357l2.525 2.525c.191.191.191.5 0 .69zM5.284.976C2.909.976.976 2.909.976 5.285c0 2.376 1.933 4.309 4.308 4.309 2.377 0 4.309-1.934 4.309-4.309 0-2.376-1.932-4.309-4.309-4.309z"/>
</svg>
