<svg xmlns="http://www.w3.org/2000/svg" width="8" height="6">
    <path fill="#FFF" fill-rule="evenodd" d="M5.687 3l2.244 2.545c.071.08.089.195.045.293-.043.098-.138.162-.244.162H6.129c-.075 0-.147-.033-.198-.09L3.526 3.182c-.091-.103-.091-.261 0-.364L5.931.091C5.982.033 6.054 0 6.129 0h1.603c.106 0 .201.063.244.161.043.099.026.214-.045.294L5.687 3zM2.215 3l2.243 2.545c.07.08.089.195.046.293-.043.098-.139.162-.245.162H2.656c-.075 0-.147-.033-.198-.09L.053 3.182c-.091-.103-.091-.261 0-.364L2.458.091C2.509.033 2.581 0 2.656 0h1.603c.106 0 .202.063.245.161.042.099.024.214-.046.294L2.215 3z"/>
</svg>
