<svg xmlns="http://www.w3.org/2000/svg" width="12" height="12">
    <path fill="#FFF" fill-rule="evenodd" d="M11.612 6.961l-1.016 1.016c-.122.122-.285.189-.458.189-.172 0-.334-.067-.456-.189s-.19-.284-.19-.457c0-.173.067-.335.19-.457l.393-.394H5.093c-.357 0-.646-.29-.646-.646 0-.357.289-.647.646-.647h4.982l-.393-.393c-.122-.122-.19-.285-.19-.457 0-.173.068-.335.19-.458.122-.122.284-.189.457-.189.172 0 .335.067.457.189l1.016 1.016c.25.251.388.584.388.939s-.138.688-.388.938zm-3.683-3.4c-.357 0-.647-.29-.647-.646v-.907c0-.394-.321-.715-.715-.715H2.008c-.394 0-.715.321-.715.715v7.984c0 .394.321.715.715.715h4.559c.394 0 .715-.321.715-.715v-.907c0-.356.29-.646.647-.646.356 0 .646.29.646.646v.907c0 1.107-.901 2.008-2.008 2.008H2.008C.901 12 0 11.099 0 9.992V2.008C0 .901.901 0 2.008 0h4.559c1.107 0 2.008.901 2.008 2.008v.907c0 .356-.29.646-.646.646z"/>
</svg>
