<svg xmlns="http://www.w3.org/2000/svg" width="12" height="12">
    <path fill="#FFF" fill-rule="evenodd" d="M11.307 6.611H6.036l.417.367c.129.114.2.266.2.427 0 .162-.071.313-.2.428-.13.114-.301.176-.484.176s-.355-.062-.484-.176l-1.074-.95C4.146 6.65 4 6.338 4 6.007c0-.332.146-.643.411-.877l1.074-.949c.13-.114.301-.177.484-.177s.354.063.484.177c.129.114.2.265.2.427 0 .161-.071.313-.2.427l-.417.368h5.271c.377 0 .684.271.684.604 0 .333-.307.604-.684.604zm-3.379-3.05c-.356 0-.646-.29-.646-.646v-.907c0-.394-.321-.715-.715-.715h-4.56c-.393 0-.714.321-.714.715v7.984c0 .394.321.715.714.715h4.56c.394 0 .715-.321.715-.715v-.907c0-.356.29-.646.646-.646.357 0 .647.29.647.646v.907c0 1.107-.901 2.008-2.008 2.008h-4.56C.901 12 0 11.099 0 9.992V2.008C0 .901.901 0 2.007 0h4.56c1.107 0 2.008.901 2.008 2.008v.907c0 .356-.29.646-.647.646z"/>
</svg>
