<svg xmlns="http://www.w3.org/2000/svg" width="12" height="12">
    <path fill="#FFF" fill-rule="evenodd" d="M11.494 12H.506C.227 12 0 11.796 0 11.545v-.29c0-.251.227-.455.506-.455h10.988c.279 0 .506.204.506.455v.29c0 .251-.227.455-.506.455zM6.95 9.226c-.516.501-1.37.503-1.885.003L1.754 6.016c-.235-.228-.22-.584.033-.795l.06-.051c.253-.211.649-.198.884.03l2.602 2.525V.499c0-.276.249-.499.555-.499h.224c.306 0 .555.223.555.499v7.237l2.604-2.531c.235-.228.631-.241.884-.03l.06.05c.254.212.269.568.034.796L6.95 9.226z"/>
</svg>
