<svg xmlns="http://www.w3.org/2000/svg" width="13" height="13">
    <path fill="#E34160" fill-rule="evenodd" d="M6.5 0C2.911 0 0 2.91 0 6.5S2.911 13 6.5 13c3.59 0 6.5-2.91 6.5-6.5S10.09 0 6.5 0zm0 11.781c-2.917 0-5.281-2.364-5.281-5.281S3.583 1.219 6.5 1.219s5.281 2.364 5.281 5.281-2.364 5.281-5.281 5.281zm.001-8.93c-.466 0-.819.243-.819.635v3.599c0 .393.353.635.819.635.454 0 .817-.252.817-.635V3.486c0-.383-.363-.635-.817-.635zm0 5.68c-.448 0-.812.364-.812.812 0 .447.364.811.812.811.447 0 .81-.364.81-.811 0-.448-.363-.812-.81-.812z"/>
</svg>
