<svg xmlns="http://www.w3.org/2000/svg" width="24" height="22">
    <path fill="#F4AB0D" fill-rule="evenodd" d="M23.556 20.461c-.545.964-1.522 1.539-2.612 1.539H3.02c-1.09 0-2.067-.575-2.611-1.539-.545-.964-.545-2.114 0-3.077L9.371 1.539C9.916.575 10.892 0 11.983 0c1.089 0 2.065.575 2.61 1.539l8.963 15.845c.544.963.544 2.113 0 3.077zm-1.637-2.113L12.957 2.503c-.203-.36-.568-.574-.974-.574-.408 0-.772.214-.976.574L2.045 18.348c-.203.36-.203.789 0 1.149.204.36.568.574.975.574h17.924c.407 0 .772-.214.975-.574.204-.36.204-.789 0-1.149zm-9.944-.887c-.596 0-1.073-.502-1.073-1.079 0-.576.477-1.092 1.073-1.092.61 0 1.087.516 1.087 1.092 0 .577-.477 1.079-1.087 1.079zm0-3.567c-.569 0-1.033-.288-1.033-.713V7.399c0-.364.464-.728 1.033-.728.597 0 1.021.364 1.021.728v5.782c0 .425-.424.713-1.021.713z"/>
</svg>
