<svg xmlns="http://www.w3.org/2000/svg" width="22" height="26">
    <path fill="#FFF" fill-rule="evenodd" d="M14.329 21.81l-2.501 3.744c-.187.279-.497.446-.828.446-.331 0-.642-.167-.828-.446L7.67 21.81C3.267 20.388 0 16.205 0 11.165 0 4.994 4.92 0 11 0c6.076 0 11 4.991 11 11.165 0 5.037-3.265 9.223-7.671 10.645zM11 2.031c-4.962 0-9 4.098-9 9.134 0 4.231 2.819 7.732 6.568 8.797.228.065.425.21.558.408L11 23.175l1.874-2.805c.133-.199.331-.343.558-.408C17.177 18.899 20 15.4 20 11.165c0-5.036-4.038-9.134-9-9.134zm0 6.088c-.65 0-1.158-.547-1.158-1.159 0-.611.508-1.143 1.158-1.143.636 0 1.145.532 1.145 1.143 0 .612-.509 1.159-1.145 1.159zm0 1.482c.608 0 1.103.305 1.103.756v6.134c0 .387-.495.773-1.103.773-.636 0-1.088-.386-1.088-.773v-6.134c0-.451.452-.756 1.088-.756z"/>
</svg>
