<svg xmlns="http://www.w3.org/2000/svg" width="20" height="20">
    <path fill="#505050" fill-rule="evenodd" d="M18.78 11.22h-1.022c-.034 0-.062.019-.073.049-.104.311-.232.619-.379.913-.014.027-.007.061.015.083l.726.727c.475.476.475 1.249 0 1.725l-1.38 1.379c-.23.23-.536.357-.862.357-.326 0-.633-.127-.863-.357l-1.068-1.066-.011-.011c-.105-.109-.162-.253-.16-.405.003-.152.065-.293.174-.4.109-.105.251-.161.404-.16.152.003.294.064.4.173l1.066 1.063c.031.033.083.033.114.001l1.381-1.38c.032-.032.032-.083 0-.115l-.725-.727c-.37-.368-.462-.93-.229-1.398.124-.247.231-.505.318-.766.167-.493.628-.824 1.148-.824h1.026c.045 0 .082-.036.082-.081V8.049c0-.045-.037-.081-.082-.081h-1.027c-.519 0-.98-.331-1.147-.824-.088-.261-.194-.519-.318-.765-.233-.469-.141-1.031.229-1.4l.725-.726c.032-.032.032-.083 0-.115l-1.38-1.38c-.031-.031-.084-.031-.115 0l-.726.725c-.369.369-.931.461-1.398.229-.248-.124-.505-.231-.767-.318-.495-.168-.825-.631-.824-1.152V1.219c0-.044-.036-.081-.081-.081H10c-.045 0-.081.037-.081.081v1.023c.002.521-.329.984-.823 1.152-.262.088-.52.195-.766.318-.469.234-1.031.142-1.4-.229l-.726-.725c-.031-.032-.083-.032-.115 0l-1.38 1.38c-.032.032-.032.083 0 .115l1.067 1.068c.216.224.217.572.002.794-.105.109-.248.17-.4.173-.152.003-.296-.055-.405-.16L3.904 5.056c-.475-.475-.475-1.248 0-1.724l1.381-1.38c.475-.473 1.248-.473 1.723-.001l.726.727c.025.024.058.03.088.015.293-.147.6-.274.912-.379.027-.01.047-.038.046-.069V1.219C8.78.547 9.327 0 10 0h1.951c.673 0 1.22.547 1.22 1.219v1.023c0 .034.019.062.049.073.311.104.618.232.912.38.028.013.062.006.084-.016l.726-.726c.476-.475 1.249-.475 1.724 0l1.384 1.38c.475.476.475 1.249 0 1.724l-.726.726c-.024.025-.03.059-.016.088.147.293.274.6.378.912.01.028.04.047.068.046h1.026c.673 0 1.22.547 1.22 1.22V10c0 .673-.547 1.22-1.22 1.22zM4.415 8.273c.023.024.058.03.088.016.106-.048.215-.093.322-.134.032-.012.053-.041.053-.073v-.359c0-.672.547-1.219 1.219-1.219h1.301c.116 0 .227.017.333.047-.05-.084-.078-.18-.08-.28-.003-.152.054-.296.16-.405 1.745-1.742 4.58-1.743 6.324-.006l.003.003c1.739 1.743 1.739 4.58 0 6.323l-.012.012c-.107.102-.246.159-.395.159h-.01c-.095-.002-.186-.027-.267-.072.027.101.042.207.042.317v1.301c0 .672-.547 1.219-1.219 1.219h-.358c-.033 0-.062.02-.073.05-.049.124-.094.229-.137.325-.015.031-.008.066.015.089l.255.256c.473.475.473 1.248.001 1.723l-.92.919c-.474.473-1.247.474-1.723.003l-.256-.256c-.023-.023-.058-.03-.088-.016-.107.049-.215.094-.322.135-.033.011-.053.041-.053.073v.358c0 .672-.547 1.219-1.22 1.219H6.097c-.672 0-1.219-.547-1.219-1.219v-.358c0-.032-.02-.061-.05-.072l-.007-.003c-.12-.048-.224-.092-.32-.135-.03-.014-.066-.008-.089.015l-.255.255c-.476.473-1.248.473-1.723.001l-.92-.92c-.472-.475-.473-1.248-.001-1.723l.256-.256c.023-.023.03-.058.016-.087-.048-.107-.094-.215-.134-.323-.013-.032-.041-.053-.073-.053h-.359C.547 15.122 0 14.575 0 13.903v-1.301c0-.673.547-1.22 1.219-1.22h.358c.033 0 .064-.02.075-.049.043-.113.087-.219.135-.325.015-.03.008-.066-.015-.088l-.255-.256c-.473-.476-.473-1.249-.001-1.723l.919-.923c.476-.472 1.249-.472 1.724 0l.256.255zm8.748 3.493c.006-.142.063-.282.173-.388l.029-.029c.626-.634.967-1.474.961-2.364-.006-.89-.358-1.725-.993-2.35-.628-.62-1.46-.961-2.344-.961h-.019c-.89.006-1.725.359-2.35.992-.111.107-.252.162-.393.164.24.223.391.541.391.893v.358c0 .033.02.062.05.073.124.049.229.093.325.137.03.014.066.008.089-.015l.256-.255c.475-.472 1.248-.473 1.723-.001l.919.92c.473.475.474 1.247.003 1.723l-.256.256c-.023.023-.03.058-.016.087.048.108.094.216.134.323.012.032.041.053.073.053h.359c.348 0 .663.148.886.384zm-9.807-2.94c-.032-.032-.084-.032-.116 0l-.919.919c-.015.016-.024.035-.024.057s.009.043.024.058l.256.254c.354.359.452.907.245 1.365-.038.084-.073.169-.106.255-.18.468-.637.784-1.138.786h-.359c-.044 0-.081.037-.081.082v1.301c0 .044.037.081.081.081h.358c.502.002.959.318 1.138.786.033.086.069.172.107.255.207.458.109 1.006-.244 1.364l-.256.255c-.032.032-.032.084 0 .115l.921.921c.029.027.082.028.113-.003l.255-.254c.227-.224.541-.352.863-.352.175 0 .343.036.501.107.083.038.169.074.255.106.468.179.784.637.786 1.138v.359c0 .044.037.081.081.081h1.301c.045 0 .082-.037.082-.081v-.358c.002-.502.317-.959.785-1.138.086-.032.172-.068.255-.106.458-.208 1.006-.11 1.363.244l.256.255c.032.032.083.032.116 0l.921-.921c.013-.014.021-.034.021-.056 0-.021-.008-.041-.023-.057l-.255-.254c-.354-.359-.452-.907-.245-1.365.038-.083.073-.169.106-.255.18-.468.637-.784 1.138-.786h.359c.044 0 .081-.037.081-.081v-1.301c0-.045-.037-.082-.081-.082h-.358c-.502-.002-.959-.317-1.138-.785-.033-.086-.069-.172-.106-.255-.208-.458-.11-1.006.243-1.363l.256-.256c.032-.032.032-.083 0-.115l-.919-.919c-.031-.031-.084-.031-.116.001l-.254.253c-.358.355-.906.453-1.364.245-.083-.038-.169-.074-.255-.106-.469-.179-.785-.637-.786-1.138v-.359c0-.044-.037-.081-.082-.081H6.097c-.044 0-.081.037-.081.081v.358c-.002.503-.318.96-.786 1.138-.086.033-.172.069-.255.106-.458.208-1.006.11-1.364-.244l-.255-.255zm2.944 1.29l.116-.014c.071-.007.146-.012.228-.015l.022-.001.014-.001c.02-.002.045-.004.073-.004h.001c.672 0 1.342.223 1.884.629l.053.039c.048.038.091.074.135.111l.103.095.017.016.072.07c.048.048.097.103.149.165l.008.008c.009.009.018.02.026.031.118.141.224.296.316.459l.014.029c.057.106.109.216.154.328.019.05.037.097.053.144.025.07.047.143.067.215l.007.026c.013.048.026.094.036.145.017.078.031.163.044.267.01.079.016.161.02.253l.002.041c.002.03.005.065.004.104l-.001.043-.001.01c-.002.064-.005.126-.01.195-.006.075-.015.146-.024.206-.074.511-.251.992-.524 1.43-.059.096-.132.184-.215.263-.264.25-.562.465-.885.638l-.032.017c-.047.024-.095.046-.14.067l-.035.016c-.033.016-.069.033-.112.049l-.144.053-.018.006c-.04.014-.082.029-.126.042-.069.021-.134.036-.188.049l-.029.007-.075.017c-.08.016-.164.028-.256.039h-.002c-.009.001-.024.004-.044.005-.113.012-.212.017-.304.017-.043 0-.08-.003-.113-.007l-.05-.004-.038-.001c-.068-.003-.135-.006-.207-.015-.118-.016-.236-.038-.352-.066h-.006l-.03-.008c-1.117-.288-1.991-1.161-2.28-2.278-.212-.821-.091-1.675.338-2.404.431-.731 1.12-1.25 1.94-1.462.115-.027.23-.049.345-.064zm-1.526 2.632c-.278 1.086.379 2.195 1.465 2.473.077.02.157.034.237.045l.036.004c.066.008.136.012.205.013h.064c.046-.001.093-.004.138-.008l.107-.012.027-.005.012-.002c.184-.029.362-.083.532-.16l.021-.011c.037-.016.072-.034.113-.056.536-.295.907-.813 1.016-1.42.013-.073.021-.143.026-.211l.001-.016.002-.047v-.008c.003-.065.002-.133-.002-.203l-.002-.038-.001-.028c-.008-.077-.02-.157-.037-.235l-.01-.039-.012-.046c-.015-.055-.03-.108-.049-.16l-.008-.024-.024-.064c-.029-.071-.061-.14-.097-.207l-.046-.076c-.024-.04-.051-.081-.086-.133l-.061-.08c-.028-.035-.059-.072-.097-.113l-.027-.029-.004-.005c-.009-.012-.02-.023-.03-.033-.05-.049-.105-.098-.161-.143l-.053-.04-.017-.012c-.047-.035-.094-.066-.137-.093l-.01-.006-.057-.036c-.137-.077-.286-.14-.44-.184l-.031-.008-.003-.001-.027-.007c-.058-.015-.121-.028-.185-.037l-.027-.004-.038-.006c-.084-.011-.168-.017-.25-.017-.164 0-.328.02-.489.059l-.02.005c-.719.184-1.28.746-1.464 1.464z"/>
</svg>
