<svg xmlns="http://www.w3.org/2000/svg" width="20" height="20">
    <path fill="none" fill-rule="evenodd" d="M0 0h20v20H0V0z"/>
    <path fill="#505050" fill-rule="evenodd" d="M18.842 16.143L12.89 10.5l5.952-5.642c.098.195.158.411.158.642v10c0 .231-.06.447-.158.643zm-7.07-5.996l-1.807 1.646-8.06-7.643c.206-.093.434-.15.677-.15h14.836c.243 0 .472.057.678.15l-6.324 5.996v.001zM1.159 16.142C1.06 15.947 1 15.731 1 15.5v-10c0-.231.06-.447.159-.643L7.11 10.5l-5.951 5.642zm8.433-3.288c.103.097.238.146.373.146s.27-.049.373-.146l1.807-1.647 5.951 5.643c-.206.093-.435.15-.678.15H2.582c-.244 0-.472-.057-.678-.15l5.952-5.643 1.736 1.647z"/>
</svg>
