<svg xmlns="http://www.w3.org/2000/svg" width="20" height="20">
    <path fill="none" fill-rule="evenodd" d="M0 0h20v20H0V0z"/>
    <path fill="#505050" fill-rule="evenodd" d="M15.511 11.99c-.926-.926-2.028-1.611-3.231-2.026 1.288-.887 2.134-2.372 2.134-4.05C14.414 3.204 12.21 1 9.5 1 6.79 1 4.586 3.204 4.586 5.914c0 1.678.846 3.163 2.134 4.05-1.203.415-2.304 1.1-3.23 2.026C1.884 13.595 1 15.73 1 18h17c0-2.27-.884-4.405-2.489-6.01zM5.914 5.914c0-1.977 1.609-3.586 3.586-3.586 1.977 0 3.586 1.609 3.586 3.586 0 1.977-1.609 3.586-3.586 3.586-1.977 0-3.586-1.609-3.586-3.586zM2.429 16.801c.572-3.386 3.525-5.973 7.071-5.973s6.498 2.587 7.071 5.973H2.429z"/>
</svg>
