<svg xmlns="http://www.w3.org/2000/svg" width="20" height="20">
    <path fill="none" fill-rule="evenodd" d="M0 0h20v20H0V0z"/>
    <path fill="#505050" fill-rule="evenodd" d="M17.418 4H2.582C1.711 4 1 4.673 1 5.5v10c0 .824.708 1.5 1.582 1.5h14.836c.869 0 1.582-.671 1.582-1.5v-10c0-.824-.708-1.5-1.582-1.5zm-.219 1l-7.165 6.794L2.806 5h14.393zM2.055 15.293V5.702l5.079 4.775-5.079 4.816zm.746.707l5.082-4.819 1.781 1.674c.206.194.539.193.744-.001l1.737-1.647L17.199 16H2.801zm15.144-.707L12.891 10.5l5.054-4.793v9.586z"/>
</svg>
