<svg xmlns="http://www.w3.org/2000/svg" width="20" height="20">
    <path fill="none" fill-rule="evenodd" d="M0 0h20v20H0V0z"/>
    <path fill="#505050" fill-rule="evenodd" d="M18.238 2h-1.142H5.918C4.555 2 3.447 3.083 3.447 4.415v10.304H1v2.559C1 18.228 1.79 19 2.762 19h12.55v-.001c1.331-.035 2.403-1.104 2.403-2.414V6.281H20V3.722C20 2.772 19.209 2 18.238 2zm-4.799 15.789H2.762c-.288 0-.523-.229-.523-.511V15.93h11.2v1.859zm3.037-1.204c0 .664-.553 1.204-1.232 1.204h-.566v-3.07H4.686V4.415c0-.664.552-1.204 1.232-1.204h10.558v13.374zM18.761 5.07h-1.046V3.211h.523c.288 0 .523.229.523.511V5.07z"/>
    <path fill="#505050" fill-rule="evenodd" d="M6.5 6h8c.276 0 .5.224.5.5s-.224.5-.5.5h-8c-.276 0-.5-.224-.5-.5s.224-.5.5-.5zM6.5 9h8c.276 0 .5.224.5.5s-.224.5-.5.5h-8c-.276 0-.5-.224-.5-.5s.224-.5.5-.5zM6.5 12h8c.276 0 .5.224.5.5s-.224.5-.5.5h-8c-.276 0-.5-.224-.5-.5s.224-.5.5-.5z"/>
</svg>
