<svg xmlns="http://www.w3.org/2000/svg" width="36" height="36">
    <path fill="none" fill-rule="evenodd" d="M0 0h36v36H0V0z"/>
    <path fill="#E96780" fill-rule="evenodd" d="M16 23h1v4h-1v-4zM18 23h1v4h-1v-4zM20 23h1v4h-1v-4z"/>
    <path fill="#E96780" fill-rule="evenodd" d="M26.772 13.402l-3.863-3.214c-.072-.061-.158-.108-.252-.14-.093-.031-.193-.048-.294-.048H12.318c-1.28 0-2.318.863-2.318 1.928v14.144C10 27.137 11.038 28 12.318 28h12.364c1.28 0 2.318-.863 2.318-1.928V13.857c-.001-.17-.083-.334-.228-.455zm-1.317 12.67c0 .355-.347.642-.773.642H12.318c-.427 0-.773-.287-.773-.642V11.928c0-.355.346-.642.773-.642h9.272v2.571c0 .355.347.643.773.643h3.092v11.572z"/>
</svg>
