<svg xmlns="http://www.w3.org/2000/svg" width="36" height="36">
    <path fill="none" fill-rule="evenodd" d="M0 0h36v36H0V0z"/>
    <path fill="#E96780" fill-rule="evenodd" d="M23.511 19.99c-.926-.926-2.028-1.612-3.231-2.026 1.288-.887 2.134-2.371 2.134-4.05C22.414 11.204 20.21 9 17.5 9c-2.71 0-4.914 2.204-4.914 4.914 0 1.679.846 3.163 2.134 4.05-1.203.414-2.305 1.1-3.23 2.026C9.884 21.595 9 23.73 9 26h17c0-2.27-.884-4.405-2.489-6.01zm-9.597-6.076c0-1.977 1.609-3.586 3.586-3.586 1.977 0 3.586 1.609 3.586 3.586 0 1.977-1.609 3.586-3.586 3.586-1.977 0-3.586-1.609-3.586-3.586zm-3.485 10.887c.572-3.386 3.525-5.973 7.071-5.973s6.498 2.587 7.071 5.973H10.429z"/>
</svg>
