<svg xmlns="http://www.w3.org/2000/svg" width="36.5" height="36.5">
    <path fill="none" fill-rule="evenodd" stroke="#E96780" d="M7 17h22c1.105 0 2 .895 2 2v4c0 1.104-.895 2-2 2H7c-1.105 0-2-.896-2-2v-4c0-1.105.895-2 2-2z"/>
    <path fill="none" fill-rule="evenodd" stroke="#E96780" d="M7 10h22c1.105 0 2 .896 2 2v4c0 1.104-.895 2-2 2H7c-1.105 0-2-.896-2-2v-4c0-1.104.895-2 2-2z"/>
    <path fill="#E96780" fill-rule="evenodd" d="M11 11h1v6h-1v-6zM11 18h1v6h-1v-6z"/>
    <path fill="none" fill-rule="evenodd" d="M0 0h36v36H0V0z"/>
</svg>
