<svg xmlns="http://www.w3.org/2000/svg" width="36.75" height="36.75">
    <path fill="none" fill-rule="evenodd" d="M0 0h36v36H0V0z"/>
    <path fill="#FFF" fill-rule="evenodd" stroke="#E96780" stroke-width="1.5" d="M18 9c4.97 0 9 4.029 9 9s-4.03 9-9 9c-4.971 0-9-4.029-9-9s4.029-9 9-9z"/>
    <path fill="#E96780" fill-rule="evenodd" d="M18 13c.552 0 1 .448 1 1v4c0 .552-.448 1-1 1s-1-.448-1-1v-4c0-.552.448-1 1-1z"/>
    <path fill="#E96780" fill-rule="evenodd" d="M18 17h4c.552 0 1 .448 1 1s-.448 1-1 1h-4c-.552 0-1-.448-1-1s.448-1 1-1zM17 8h1v3h-1V8zM24.207 11.086l.707.707-2.121 2.121-.707-.707 2.121-2.121zM13.207 22.086l.707.707-2.121 2.121-.707-.707 2.121-2.121zM11.709 10.992l-.717.717 2.15 2.15.717-.717-2.15-2.15zM22.858 22.141l-.717.717 2.15 2.15.717-.717-2.15-2.15zM25 18h3v1h-3v-1zM8 18h3v1H8v-1zM17 25h1v3h-1v-3z"/>
</svg>
