<svg xmlns="http://www.w3.org/2000/svg" width="36" height="36">
    <path fill="none" fill-rule="evenodd" d="M0 0h36v36H0V0z"/>
    <path fill="#505050" fill-rule="evenodd" d="M26.238 10h-1.142-11.179c-1.362 0-2.47 1.083-2.47 2.414v10.305H9v2.559c0 .95.79 1.722 1.762 1.722h12.55v-.001c1.331-.035 2.403-1.104 2.403-2.414V14.281H28v-2.559c0-.949-.791-1.722-1.762-1.722zm-4.799 15.789H10.762c-.288 0-.523-.229-.523-.511V23.93h11.2v1.859zm3.037-1.204c0 .664-.553 1.204-1.232 1.204h-.566v-3.07h-9.992V12.414c0-.663.552-1.203 1.231-1.203h10.559v13.374zm2.285-11.515h-1.046v-1.859h.523c.288 0 .523.229.523.511v1.348z"/>
    <path fill="#505050" fill-rule="evenodd" d="M14.5 14h8c.276 0 .5.224.5.5s-.224.5-.5.5h-8c-.276 0-.5-.224-.5-.5s.224-.5.5-.5zM14.5 17h8c.276 0 .5.224.5.5s-.224.5-.5.5h-8c-.276 0-.5-.224-.5-.5s.224-.5.5-.5zM14.5 20h8c.276 0 .5.224.5.5s-.224.5-.5.5h-8c-.276 0-.5-.224-.5-.5s.224-.5.5-.5z"/>
</svg>
