<svg xmlns="http://www.w3.org/2000/svg" width="36.5" height="36.5">
    <path fill="#505050" fill-rule="evenodd" d="M22.598 9.069c4.091.003 7.405 3.322 7.402 7.414 0 .285-.231.517-.517.517-.286 0-.517-.232-.517-.517 0-3.523-2.856-6.38-6.38-6.38h-.517l1.517 1.138c.131.098.207.252.207.415 0 .285-.232.516-.518.516-.111 0-.22-.036-.309-.103L20.207 10c-.013-.009-.022-.023-.033-.033-.014-.012-.026-.024-.038-.037-.01-.012-.023-.021-.033-.033-.012-.017-.015-.037-.025-.055-.018-.03-.034-.06-.045-.094-.012-.034-.017-.069-.021-.105-.003-.019-.012-.037-.012-.057 0-.012.006-.022.007-.034.003-.037.011-.071.021-.106.009-.031.017-.06.031-.088.014-.029.034-.054.054-.08.022-.029.043-.055.069-.078.01-.009.015-.02.025-.028l2.759-2.069c.229-.171.553-.124.724.104.171.229.125.553-.104.724l-1.517 1.138h.529zM8 10h5c1.105 0 2 .896 2 2v14c0 1.105-.895 2-2 2H8c-1.105 0-2-.895-2-2V12c0-1.104.895-2 2-2z"/>
    <path fill="none" fill-rule="evenodd" stroke="#505050" d="M19 20h11c1.105 0 2 .895 2 2v4c0 1.105-.895 2-2 2H19c-1.104 0-2-.895-2-2v-4c0-1.105.896-2 2-2z"/>
    <path fill="none" fill-rule="evenodd" d="M0 0h36v36H0V0z"/>
</svg>
