<svg xmlns="http://www.w3.org/2000/svg" width="36" height="36">
    <path fill="none" fill-rule="evenodd" d="M0 0h36v36H0V0z"/>
    <path fill="#E96780" fill-rule="evenodd" d="M26.78 19.219h-1.022c-.034 0-.062.02-.073.05-.104.311-.232.618-.379.912-.014.028-.007.062.016.084l.725.727c.475.475.475 1.249 0 1.725l-1.38 1.379c-.23.23-.536.356-.862.356-.326 0-.632-.126-.862-.356l-1.069-1.066-.011-.011c-.105-.109-.162-.253-.159-.405.002-.152.064-.294.173-.399.109-.106.251-.163.404-.161.152.003.294.064.4.174l1.066 1.063c.031.031.083.031.115 0l1.381-1.38c.031-.032.031-.083 0-.115l-.726-.727c-.37-.368-.462-.93-.229-1.398.124-.247.231-.505.318-.766.167-.493.628-.824 1.148-.824h1.026c.045 0 .082-.036.082-.081v-1.951c0-.045-.037-.082-.082-.082h-1.027c-.519 0-.98-.33-1.147-.823-.088-.261-.194-.519-.318-.766-.233-.468-.141-1.03.229-1.399l.725-.726c.032-.032.032-.083 0-.115l-1.38-1.38c-.031-.031-.084-.031-.115 0l-.727.725c-.368.369-.93.462-1.397.229-.248-.124-.505-.231-.767-.318-.495-.168-.825-.631-.824-1.153V9.22c0-.045-.036-.082-.08-.082H18c-.045 0-.081.037-.081.082v1.022c.002.522-.329.984-.823 1.152-.262.088-.52.195-.766.318-.469.234-1.031.142-1.4-.23l-.725-.724c-.032-.032-.084-.032-.116 0l-1.38 1.38c-.032.032-.032.083 0 .115l1.067 1.068c.216.224.217.572.002.794-.105.109-.248.17-.4.173-.152.003-.296-.055-.405-.16l-1.069-1.072c-.475-.475-.475-1.248 0-1.724l1.381-1.38c.475-.473 1.248-.473 1.723 0l.726.725c.024.025.058.031.088.016.292-.146.6-.274.912-.379.027-.01.047-.038.046-.069V9.22c0-.673.548-1.22 1.22-1.22h1.952c.672 0 1.219.547 1.219 1.22v1.022c0 .034.019.062.05.073.31.104.617.232.912.38.027.013.061.007.083-.016l.727-.726c.475-.475 1.249-.475 1.723 0l1.384 1.38c.475.476.475 1.249 0 1.724l-.725.726c-.025.024-.031.058-.016.088.146.292.272.599.377.912.01.027.04.047.068.046h1.026c.673 0 1.22.547 1.22 1.22V18c0 .672-.547 1.219-1.22 1.219zm-14.365-2.946c.023.023.058.03.088.016.107-.048.215-.094.322-.135.033-.011.053-.04.053-.072v-.358c0-.673.547-1.22 1.219-1.22h1.301c.116 0 .227.016.332.046-.049-.083-.077-.179-.079-.279-.003-.152.054-.296.16-.405 1.745-1.742 4.581-1.743 6.324-.006l.003.003c1.739 1.743 1.739 4.58 0 6.323l-.012.012c-.106.102-.246.159-.395.159h-.01c-.095-.002-.186-.027-.267-.072.027.101.042.207.042.317v1.3c0 .673-.547 1.22-1.219 1.22h-.358c-.033 0-.062.02-.073.05-.049.124-.094.229-.137.325-.015.031-.008.066.015.089l.255.256c.473.475.473 1.248.001 1.723l-.92.919c-.475.473-1.248.473-1.723.003l-.256-.256c-.023-.023-.058-.03-.088-.016-.106.049-.215.094-.322.135-.032.011-.053.04-.053.072v.358c0 .673-.547 1.22-1.22 1.22h-1.301c-.672 0-1.219-.547-1.219-1.22v-.357c0-.033-.02-.062-.05-.072l-.007-.003c-.12-.048-.224-.092-.32-.135-.03-.014-.066-.008-.089.015l-.256.255c-.475.472-1.248.472-1.723.001l-.919-.92c-.472-.475-.473-1.248 0-1.723l.255-.256c.023-.023.03-.058.016-.088-.048-.106-.094-.215-.134-.322-.012-.032-.041-.053-.073-.053h-.359c-.672 0-1.219-.547-1.219-1.22v-1.3c0-.673.547-1.22 1.219-1.22h.358c.034 0 .064-.02.075-.05.043-.112.087-.218.135-.324.015-.031.008-.066-.015-.089l-.255-.255c-.473-.476-.473-1.249-.001-1.723l.919-.923c.476-.472 1.249-.472 1.724-.001l.256.256zm8.748 3.493c.006-.142.063-.282.173-.388l.029-.029c.626-.634.967-1.474.961-2.364-.006-.89-.358-1.725-.993-2.35-.628-.62-1.46-.961-2.343-.961h-.02c-.89.006-1.725.358-2.35.992-.111.107-.252.162-.393.164.24.223.391.541.391.894v.357c0 .033.02.062.05.073.124.049.229.093.325.137.031.014.066.008.089-.015l.255-.255c.476-.473 1.249-.473 1.724 0l.919.919c.473.475.474 1.247.002 1.723l-.255.256c-.023.023-.03.058-.016.087.048.108.094.216.134.323.013.033.041.053.073.053h.359c.349 0 .663.148.886.384zm-9.808-2.94c-.032-.032-.083-.032-.115 0l-.919.919c-.015.015-.024.035-.024.058 0 .022.009.041.024.057l.256.254c.354.359.452.907.245 1.365-.038.083-.073.169-.106.255-.18.469-.637.784-1.138.786h-.359c-.044 0-.081.037-.081.082v1.3c0 .045.037.082.081.082h.358c.502.002.959.318 1.138.786.033.086.069.172.106.255.208.458.11 1.006-.243 1.363l-.256.256c-.032.032-.032.083 0 .115l.921.921c.029.027.082.028.113-.003l.255-.254c.227-.225.542-.353.863-.353.175 0 .343.037.501.108.083.038.169.073.255.106.469.18.784.637.786 1.138v.358c0 .045.037.082.081.082h1.301c.045 0 .082-.037.082-.082v-.357c.002-.502.317-.959.785-1.138.086-.033.172-.068.255-.106.458-.208 1.006-.11 1.363.244l.256.255c.032.032.084.032.116 0l.921-.921c.013-.014.021-.034.021-.056 0-.021-.008-.041-.023-.057l-.255-.255c-.354-.358-.453-.906-.245-1.364.038-.083.073-.169.106-.255.18-.468.636-.784 1.138-.786h.359c.044 0 .081-.037.081-.082v-1.3c0-.045-.037-.082-.081-.082h-.358c-.502-.002-.959-.317-1.138-.785-.033-.086-.069-.172-.107-.255-.207-.458-.109-1.006.244-1.363l.256-.256c.032-.032.032-.083 0-.115l-.919-.919c-.031-.031-.084-.031-.116.001l-.254.253c-.358.354-.906.453-1.364.245-.083-.038-.169-.074-.255-.106-.468-.179-.784-.637-.786-1.138v-.358c0-.045-.037-.082-.082-.082h-1.301c-.044 0-.081.037-.081.082v.357c-.002.503-.318.96-.787 1.138-.085.033-.171.068-.254.106-.458.208-1.006.11-1.363-.244l-.257-.255zm2.944 1.29l.117-.014c.071-.008.146-.012.228-.014l.022-.002.014-.001c.02-.002.045-.005.073-.004h.001c.672 0 1.342.224 1.884.629l.053.039c.048.038.092.074.135.111l.103.095.017.016.072.069c.047.049.097.103.149.166l.008.008.026.03c.118.142.224.297.316.46l.014.028c.058.107.109.218.154.328l.053.145c.025.07.047.143.067.215l.007.026c.013.047.026.095.036.145.017.078.031.163.044.268.009.078.016.16.02.252l.002.04c.002.031.005.066.004.105l-.001.043-.001.01c-.002.064-.005.125-.01.195-.006.075-.015.146-.024.205-.074.511-.251.993-.524 1.431-.059.096-.131.185-.215.263-.264.251-.562.466-.885.638l-.032.017c-.047.024-.095.046-.141.066l-.034.017c-.032.016-.069.033-.113.05-.048.018-.096.036-.143.052l-.018.006c-.04.014-.081.029-.126.043-.07.02-.134.035-.188.048l-.029.007-.075.017c-.08.016-.164.029-.256.039h-.002c-.009.002-.025.004-.044.005-.113.011-.212.017-.304.017-.042 0-.08-.004-.113-.007l-.049-.004-.039-.001c-.068-.004-.135-.006-.207-.015-.118-.016-.236-.038-.352-.066h-.006l-.03-.008c-1.117-.288-1.991-1.161-2.28-2.278-.212-.821-.091-1.675.338-2.405.431-.73 1.12-1.249 1.94-1.46.115-.029.23-.05.344-.065zm-1.525 2.632c-.278 1.086.38 2.195 1.465 2.473.077.019.157.034.237.045l.035.004c.068.007.137.012.206.012h.065c.046 0 .092-.003.137-.007l.107-.012.027-.005.013-.002c.183-.03.362-.084.531-.16l.022-.011c.036-.017.071-.034.112-.056.536-.295.907-.814 1.016-1.42.013-.074.021-.143.026-.211l.001-.016.002-.047v-.007c.003-.067.002-.134-.002-.204l-.002-.038-.002-.028c-.007-.077-.019-.157-.036-.235l-.01-.04-.013-.045c-.014-.056-.03-.108-.048-.16l-.009-.024c-.007-.023-.015-.043-.023-.064-.029-.07-.061-.14-.097-.207l-.046-.076c-.024-.04-.051-.082-.086-.133l-.061-.08c-.028-.035-.059-.072-.097-.113l-.026-.029-.005-.005-.03-.033c-.05-.05-.105-.098-.161-.144l-.054-.039-.016-.012c-.047-.036-.094-.066-.137-.094l-.01-.006-.057-.035c-.138-.077-.287-.14-.44-.184l-.031-.008-.003-.001-.026-.007c-.059-.015-.122-.027-.186-.038l-.027-.004-.038-.005c-.084-.011-.168-.017-.25-.018-.164.001-.329.021-.489.059l-.02.006c-.719.184-1.279.746-1.464 1.464z"/>
</svg>
