<svg xmlns="http://www.w3.org/2000/svg" width="36" height="36">
    <path fill="none" fill-rule="evenodd" d="M0 0h36v36H0V0z"/>
    <path fill="#E96780" fill-rule="evenodd" d="M26.841 24.143L20.89 18.5l5.952-5.643c.098.196.158.412.158.643v10c0 .231-.06.447-.159.643zm-7.069-5.996l-1.807 1.646-8.061-7.643c.207-.093.435-.15.678-.15h14.836c.244 0 .472.057.678.151l-6.324 5.995v.001zM9.158 24.142C9.06 23.947 9 23.731 9 23.5v-10c0-.231.06-.447.158-.643L15.11 18.5l-5.952 5.642zm8.434-3.289c.103.098.238.147.373.147s.27-.049.373-.147l1.806-1.646 5.952 5.643c-.207.093-.434.15-.678.15H10.582c-.244 0-.471-.057-.678-.15l5.951-5.643 1.737 1.646z"/>
</svg>
