<svg xmlns="http://www.w3.org/2000/svg" width="36" height="36">
    <path fill="none" fill-rule="evenodd" d="M0 0h36v36H0V0z"/>
    <path fill="#505050" fill-rule="evenodd" d="M25.418 12H10.582C9.711 12 9 12.673 9 13.5v10c0 .824.707 1.5 1.582 1.5h14.836c.869 0 1.582-.671 1.582-1.5v-10c0-.824-.708-1.5-1.582-1.5zm-.219 1l-7.165 6.794L10.805 13h14.394zM10.055 23.293v-9.591l5.079 4.775-5.079 4.816zm.746.707l5.082-4.819 1.781 1.674c.206.194.539.193.744-.002l1.737-1.646L25.199 24H10.801zm15.144-.707L20.891 18.5l5.054-4.793v9.586z"/>
</svg>
