<svg xmlns="http://www.w3.org/2000/svg" width="36" height="36">
    <path fill="none" fill-rule="evenodd" d="M0 0h36v36H0V0z"/>
    <path fill="#E96780" fill-rule="evenodd" d="M25.418 9H10.582C9.711 9 9 9.673 9 10.5v10c0 .824.707 1.5 1.582 1.5h14.836c.869 0 1.582-.671 1.582-1.5v-10c0-.824-.708-1.5-1.582-1.5zm-.219 1l-7.165 6.794L10.805 10h14.394zM10.055 20.293v-9.59l5.079 4.774-5.079 4.816zm.746.707l5.082-4.819 1.781 1.674c.206.194.539.193.744-.002l1.737-1.646L25.199 21H10.801zm15.144-.707L20.891 15.5l5.054-4.793v9.586z"/>
    <text x="8" y="30" fill="#E96780" font-family="Roboto" font-size="7">
        START
    </text>
</svg>
