<?xml version="1.0" encoding="utf-8"?>
<!-- Generator: Adobe Illustrator 22.0.1, SVG Export Plug-In . SVG Version: 6.00 Build 0)  -->
<svg version="1.1" id="Layer_1" xmlns="http://www.w3.org/2000/svg" xmlns:xlink="http://www.w3.org/1999/xlink" x="0px" y="0px"
	 viewBox="0 0 20 20" style="enable-background:new 0 0 20 20;" xml:space="preserve">
<style type="text/css">
	.st0{fill:#505050;}
</style>
<path class="st0" d="M7.5,14.7h1v4h-1V14.7z M9.5,14.7h1v4h-1V14.7z M11.5,14.7h1v4h-1V14.7z"/>
<path class="st0" d="M13.8,0.8c0,0-0.1-0.1-0.1-0.1c0,0-0.1,0-0.1,0H4.4c-1,0-1.8,0.8-1.8,1.7v15.2c0,0.9,0.8,1.7,1.8,1.7h11.2
	c1,0,1.8-0.8,1.8-1.7V4.5c0-0.1,0-0.2-0.1-0.2L13.8,0.8z M16.6,17.6c0,0.6-0.5,1.1-1,1.1H4.4c-0.6,0-1-0.5-1-1.1V2.4
	c0-0.6,0.5-1.1,1-1.1h8.7v3.1c0,0.2,0.2,0.3,0.4,0.3h3.1V17.6z"/>
</svg>
