<?xml version="1.0" encoding="utf-8"?>
<!-- Generator: Adobe Illustrator 22.0.1, SVG Export Plug-In . SVG Version: 6.00 Build 0)  -->
<svg version="1.1" id="Layer_1" xmlns="http://www.w3.org/2000/svg" xmlns:xlink="http://www.w3.org/1999/xlink" x="0px" y="0px"
	 viewBox="0 0 24.5 24.5" style="enable-background:new 0 0 24.5 24.5;" xml:space="preserve">
<style type="text/css">
	.st0{fill:#FFFFFF;}
	.st1{fill:#505050;}
	.st2{fill:none;stroke:#505050;stroke-width:1.5;stroke-miterlimit:10;}
</style>
<g>
	<path class="st0" d="M12.2,0C19,0,24.5,5.5,24.5,12.2S19,24.5,12.2,24.5S0,19,0,12.2S5.5,0,12.2,0z"/>
	<path class="st1" d="M12.2,1.5c6,0,10.8,4.8,10.8,10.7S18.2,23,12.2,23S1.5,18.2,1.5,12.2S6.3,1.5,12.2,1.5 M12.2,0
		C5.5,0,0,5.5,0,12.2s5.5,12.2,12.2,12.2S24.5,19,24.5,12.2S19,0,12.2,0L12.2,0z"/>
</g>
<g>
	<path class="st2" d="M12.2,1.5c6,0,10.8,4.8,10.8,10.7S18.2,23,12.2,23S1.5,18.2,1.5,12.2S6.3,1.5,12.2,1.5"/>
</g>
</svg>
