<?xml version="1.0" encoding="utf-8"?>
<!-- Generator: Adobe Illustrator 22.0.1, SVG Export Plug-In . SVG Version: 6.00 Build 0)  -->
<svg version="1.1" id="Layer_1" xmlns="http://www.w3.org/2000/svg" xmlns:xlink="http://www.w3.org/1999/xlink" x="0px" y="0px"
	 viewBox="0 0 22.2 22.2" style="enable-background:new 0 0 22.2 22.2;" xml:space="preserve">
<style type="text/css">
	.st0{fill:#FFFFFF;}
	.st1{fill:#505050;}
</style>
<g>
	<path class="st0" d="M11.1,0c6.1,0,11.1,5,11.1,11.1s-5,11.1-11.1,11.1S0,17.3,0,11.1S5,0,11.1,0z"/>
	<path class="st1" d="M11.1,0.8c5.7,0,10.4,4.7,10.4,10.4s-4.7,10.4-10.4,10.4S0.8,16.8,0.8,11.1S5.4,0.8,11.1,0.8 M11.1,0
		C5,0,0,5,0,11.1s5,11.1,11.1,11.1s11.1-5,11.1-11.1S17.3,0,11.1,0L11.1,0z"/>
</g>
<g>
	<path class="st0" d="M11.2,4c3.9,0,7.1,3.2,7.1,7.1s-3.2,7.1-7.1,7.1s-7.1-3.2-7.1-7.1S7.3,4,11.2,4z"/>
	<path class="st1" d="M11.2,4c3.9,0,7.1,3.2,7.1,7.1c0,3.9-3.2,7.1-7.1,7.1s-7.1-3.2-7.1-7.1S7.3,4,11.2,4 M11.2,3.5
		c-4.2,0-7.6,3.4-7.6,7.6s3.4,7.6,7.6,7.6s7.6-3.4,7.6-7.6S15.4,3.5,11.2,3.5L11.2,3.5z"/>
</g>
<g>
	<path class="st0" d="M16.6,14L5.8,14.1l5.2-9.2C11.1,4.9,16.6,14,16.6,14z"/>
	<path class="st1" d="M11.1,4.9l5.5,9.1L5.8,14.1L11.1,4.9 M11.1,3.9l-0.4,0.7l-5.2,9.2L5,14.6l0.9,0l10.8-0.1l0.9,0L17,13.7
		l-5.5-9.1L11.1,3.9L11.1,3.9z"/>
</g>
</svg>
