<?xml version="1.0" encoding="utf-8"?>
<!-- Generator: Adobe Illustrator 22.0.1, SVG Export Plug-In . SVG Version: 6.00 Build 0)  -->
<svg version="1.1" id="Layer_1" xmlns="http://www.w3.org/2000/svg" xmlns:xlink="http://www.w3.org/1999/xlink" x="0px" y="0px"
	 viewBox="0 0 22.2 22.2" style="enable-background:new 0 0 22.2 22.2;" xml:space="preserve">
<style type="text/css">
	.st0{fill:#FFFFFF;}
	.st1{fill:#505050;}
</style>
<g>
	<path class="st0" d="M11.1,0c6.1,0,11.1,5,11.1,11.1s-5,11.1-11.1,11.1S0,17.3,0,11.1S5,0,11.1,0z"/>
	<path class="st1" d="M11.1,0.8c5.7,0,10.4,4.7,10.4,10.4s-4.7,10.4-10.4,10.4S0.8,16.8,0.8,11.1S5.4,0.8,11.1,0.8 M11.1,0
		C5,0,0,5,0,11.1s5,11.1,11.1,11.1s11.1-5,11.1-11.1S17.3,0,11.1,0L11.1,0z"/>
</g>
<rect x="10.1" y="6.1" class="st1" width="2.1" height="5.6"/>
<rect x="11.9" y="8.5" transform="matrix(-1.836970e-16 1 -1 -1.836970e-16 24.2573 -1.5707)" class="st1" width="2.1" height="5.6"/>
<rect x="10.6" y="0.6" class="st1" width="1.1" height="3.3"/>
<rect x="16.8" y="3" transform="matrix(0.7071 0.7071 -0.7071 0.7071 8.4039 -10.9377)" class="st1" width="1.1" height="3.3"/>
<rect x="4" y="3.6" transform="matrix(0.7071 -0.7071 0.7071 0.7071 -2.3501 4.7607)" class="st1" width="1.1" height="3.3"/>
<rect x="16.8" y="15.6" transform="matrix(0.7071 -0.7071 0.7071 0.7071 -7.1061 17.3622)" class="st1" width="1.1" height="3.3"/>
<rect x="4.3" y="15.6" transform="matrix(0.7071 0.7071 -0.7071 0.7071 13.6161 1.6456)" class="st1" width="1.1" height="3.3"/>
<rect x="19.3" y="9.7" transform="matrix(-1.836970e-16 1 -1 -1.836970e-16 31.1683 -8.4817)" class="st1" width="1.1" height="3.3"/>
<rect x="1.9" y="9.7" transform="matrix(-1.836970e-16 1 -1 -1.836970e-16 13.7683 8.9183)" class="st1" width="1.1" height="3.3"/>
<rect x="10.6" y="18.2" class="st1" width="1.1" height="3.3"/>
</svg>
