<?xml version="1.0" encoding="utf-8"?>
<!-- Generator: Adobe Illustrator 22.0.1, SVG Export Plug-In . SVG Version: 6.00 Build 0)  -->
<svg version="1.1" id="Layer_1" xmlns="http://www.w3.org/2000/svg" xmlns:xlink="http://www.w3.org/1999/xlink" x="0px" y="0px"
	 viewBox="0 0 22.2 22.2" style="enable-background:new 0 0 22.2 22.2;" xml:space="preserve">
<style type="text/css">
	.st0{fill:#ECEEF1;}
	.st1{fill:#505050;}
</style>
<rect x="4" y="4" transform="matrix(0.7071 -0.7071 0.7071 0.7071 -4.6082 11.1255)" class="st0" width="14.2" height="14.2"/>
<path class="st1" d="M11.1,0.1L0.1,11.1l11.1,11.1l11.1-11.1L11.1,0.1z M1.1,11.1l10-10l10,10l-10,10L1.1,11.1z"/>
<path class="st1" d="M13.5,7.6l1.2,1.2l-5.9,5.9l-1.2-1.2C7.6,13.5,13.5,7.6,13.5,7.6z"/>
<path class="st1" d="M8.8,7.6l5.9,5.9l-1.2,1.2L7.6,8.8C7.6,8.8,8.8,7.6,8.8,7.6z"/>
</svg>
