<svg xmlns="http://www.w3.org/2000/svg" width="29" height="29">
    <path fill="none" fill-rule="evenodd" d="M0 0h28v28H0V0z" opacity=".2"/>
    <path fill="#505050" fill-rule="evenodd" d="M21.524 21.524c-.599.599-1.497.599-2.096 0l-2.096-2.096c-1.049.674-2.246 1.048-3.594 1.048C9.995 20.476 7 17.481 7 13.738 7 9.995 9.995 7 13.738 7c3.743 0 6.738 2.995 6.738 6.738 0 1.348-.374 2.546-1.048 3.594l2.096 2.096c.599.599.599 1.497 0 2.096zM13.738 8.497c-2.92 0-5.241 2.321-5.241 5.241 0 2.92 2.321 5.241 5.241 5.241 2.845 0 5.241-2.321 5.241-5.241 0-2.92-2.321-5.241-5.241-5.241zm2.995 5.99h-2.246v2.246c0 .449-.3.748-.749.748s-.749-.299-.749-.748v-2.246h-2.245c-.45 0-.749-.3-.749-.749s.374-.749.749-.749h2.245v-2.246c0-.374.3-.748.749-.748s.749.299.749.748v2.246h2.246c.374 0 .748.3.748.749s-.299.749-.748.749z"/>
    <path fill="#FFF" fill-rule="evenodd" stroke="#505050" stroke-width="2" d="M14 7c3.866 0 7 3.134 7 7s-3.134 7-7 7-7-3.134-7-7 3.134-7 7-7z"/>
    <path fill="#FFF" fill-rule="evenodd" stroke="#505050" stroke-width="2" d="M12 13h4c.552 0 1 .448 1 1s-.448 1-1 1h-4c-.552 0-1-.448-1-1s.448-1 1-1z"/>
</svg>
