<svg xmlns="http://www.w3.org/2000/svg" width="28.035" height="28.035">
    <path fill="none" fill-rule="evenodd" d="M0 0h28v28H0V0z" opacity=".2"/>
    <path fill="#505050" fill-rule="evenodd" stroke="#666670" stroke-width=".07" d="M21.387 13.028h0c-.519-.42-1.256-.554-1.877-.341-.17.058-.328.14-.47.244-.185.135-.499.425-.837.777V9.903c0-.504-.208-.996-.572-1.35-.363-.355-.84-.545-1.341-.535-.048.001-.096.003-.143.008v-.007c0-.54-.224-1.067-.613-1.447-.389-.378-.898-.582-1.436-.572-.518.009-1.007.215-1.378.579-.256.252-.437.559-.529.894-.098-.018-.197-.028-.298-.031-.544-.016-1.081.192-1.475.571-.387.374-.601.868-.601 1.39v.02l-.065-.001c-.966 0-1.752.779-1.752 1.737l.001 6.945.002.058c.066.961.272 1.788.61 2.458.324.646.78 1.167 1.352 1.549 1.104.737 2.436.831 3.473.831 2.063 0 3.924-1.022 4.861-2.668.108-.173.39-.612.679-1.062.269-.42.523-.812.748-1.159l.095-.147.32-.494c.383-.595.791-1.17 1.213-1.711.157-.202.198-.248.199-.248.252-.273.411-.608.459-.968.078-.577-.149-1.129-.625-1.515zM9.752 10.743c.233 0 .423.187.423.416v2.599l.001.023.002.026.002.022.004.025.006.022.006.023.009.022.007.022.01.022.011.02c.003.007.007.014.012.02l.012.02.013.018.014.018.015.017.016.017.017.015.018.016.017.013.02.015.018.011.021.013.02.009.022.011.021.008.023.008.023.006.024.006.024.003.023.004.025.001.024.002h.001c.017 0 .033-.001.049-.003l.021-.003.027-.004.027-.007.019-.005.03-.01.014-.006.029-.013.013-.007.026-.015.014-.009.023-.017.014-.01.02-.018.014-.013.017-.019c.005-.005.01-.009.014-.015l.015-.019.013-.017.012-.02.012-.02.01-.02.011-.022.007-.021.009-.022.006-.023.006-.023.003-.023.004-.024.001-.024.001-.024.012-4.354c0-.165.07-.323.197-.446.137-.131.322-.204.508-.198.347.01.63.31.63.668l.005 4.303.002.026.001.023.004.026.003.021.007.028.005.018.011.029.005.015.015.03.005.011.018.03.006.01c.007.009.015.018.021.028l.007.008.026.028.005.006.029.026.005.005.031.022.007.005.032.02.007.004.035.017.007.003.038.014.007.002.038.01.008.002c.031.006.063.01.097.01h0l.025-.002.024-.001.026-.004c.007-.001.015-.001.022-.003l.026-.007.02-.005.025-.009.019-.007.026-.012.016-.008c.009-.004.016-.01.024-.015l.016-.009.022-.016.015-.011.02-.019.014-.012.018-.02.013-.014.015-.02.013-.017.012-.021.012-.018.01-.021.01-.021.008-.021.008-.023.006-.022.006-.024.004-.023.003-.024.002-.024.001-.025V7.996c0-.366.3-.669.669-.676.179-.002.348.066.479.194.137.133.215.317.215.505v5.74l.002.025.001.023.004.025c.001.008.001.016.003.023l.006.024.006.021.01.026.006.018.013.026.008.016c.004.009.009.017.015.026.003.004.005.009.009.013.005.009.012.017.018.025l.009.012.022.024.009.01.025.022.01.009c.009.007.019.015.029.021l.008.006.033.02.006.004c.013.007.025.013.039.018l.003.002.042.015.002.001c.03.009.061.016.094.019 0 0 0 0 0 0 .017.002.033.003.05.003 0 0 0 0 0 0l.026-.002.023-.001.026-.004.022-.003.027-.007.019-.005.029-.01.015-.006.028-.014.014-.006.027-.016.013-.008.026-.019.011-.009.024-.022.01-.008.022-.025.009-.009.019-.026.009-.011.016-.027.008-.012.014-.029.006-.013.011-.029.005-.015.008-.028.004-.018.005-.028.002-.019.002-.026.001-.023V9.82c.031-.266.259-.477.535-.482.142-.002.279.053.384.156.112.108.175.257.175.409v5.653c.003.309.208.571.51.65.299.079.606-.046.764-.313l.003-.006c.377-.653 1.386-1.678 1.68-1.893.034-.024.074-.044.116-.059.192-.066.433-.019.599.116.079.063.168.17.148.317-.012.091-.054.178-.121.25-.035.038-.097.11-.271.333-.446.573-.877 1.181-1.281 1.808l-.356.55c-.241.372-.514.793-.809 1.252-.308.48-.593.924-.697 1.091l-.011.019c-.698 1.239-2.119 2.009-3.708 2.009-.848 0-1.924-.069-2.729-.606-.822-.548-1.272-1.525-1.377-2.986v-6.929c0-.229.189-.416.42-.416z"/>
</svg>
