<svg xmlns="http://www.w3.org/2000/svg" width="28" height="28">
    <path fill="none" fill-rule="evenodd" d="M0 0h28v28H0V0z" opacity=".2"/>
    <path fill="#505050" fill-rule="evenodd" d="M21.608 22H8.393C7.623 22 7 21.377 7 20.607V7.392C7 6.623 7.623 6 8.393 6h.527c.51 0 .924.413.924.924v2.683c0 .77.623 1.393 1.392 1.393h5.653c.769 0 1.392-.623 1.392-1.393V6.924c0-.511.414-.924.924-.924h.444c.369 0 .723.147.984.408l1.959 1.959c.261.261.408.615.408.984v11.256c0 .77-.623 1.393-1.392 1.393zm-2.389-6.576c0-.51-.414-.924-.924-.924h-6.59c-.511 0-.924.414-.924.924v4.715c0 .51.413.924.924.924h6.59c.51 0 .924-.414.924-.924v-4.715zm-1.165 4.842h-6.108c-.358 0-.649-.274-.649-.61 0-.336.291-.609.649-.609h6.108c.358 0 .649.273.649.609 0 .336-.291.61-.649.61zm0-1.875h-6.108c-.358 0-.649-.274-.649-.61 0-.336.291-.609.649-.609h6.108c.358 0 .649.273.649.609 0 .336-.291.61-.649.61zm0-1.875h-6.108c-.358 0-.649-.274-.649-.61 0-.336.291-.609.649-.609h6.108c.358 0 .649.273.649.609 0 .336-.291.61-.649.61zm-2.309-6.894h-3.364c-.608 0-1.1-.493-1.1-1.1V7.099c0-.607.492-1.099 1.1-1.099h3.364c.607 0 1.099.492 1.099 1.099v1.423c0 .607-.492 1.1-1.099 1.1z"/>
</svg>
