<svg xmlns="http://www.w3.org/2000/svg" width="28" height="28">
    <path fill="none" fill-rule="evenodd" d="M0 0h28v28H0V0z" opacity=".2"/>
    <path fill="#505050" fill-rule="evenodd" d="M13 4h2v20h-2V4z"/>
    <path fill="#505050" fill-rule="evenodd" d="M9.656 17h8.688c.552 0 1 .448 1 1v2c0 .552-.448 1-1 1H9.656c-.552 0-1-.448-1-1v-2c0-.552.448-1 1-1zM11 7h6c.552 0 1 .448 1 1v2c0 .552-.448 1-1 1h-6c-.552 0-1-.448-1-1V8c0-.552.448-1 1-1zM7 12h14c.552 0 1 .448 1 1v2c0 .552-.448 1-1 1H7c-.553 0-1-.448-1-1v-2c0-.552.447-1 1-1z"/>
</svg>
