<svg xmlns="http://www.w3.org/2000/svg" width="28.11" height="28.11">
    <path fill="none" fill-rule="evenodd" d="M0 0h28v28H0V0z" opacity=".2"/>
    <path fill="#505050" fill-rule="evenodd" stroke="#666670" stroke-width=".22" d="M19.912 21.8c.279 0 .558-.106.771-.319l.799-.799c.425-.425.425-1.117 0-1.542l-4.525-4.524 2.421-.812c.434-.146.726-.535.743-.993.016-.457-.245-.867-.667-1.045l-9.74-3.479c-.411-.173-.88-.081-1.195.233-.315.315-.406.784-.233 1.195l3.48 9.739c.177.422.588.683 1.045.666.457-.017.847-.309.993-.743l.812-2.42 4.525 4.524c.212.213.491.319.771.319zm.009-1.099l-.39.39.39-.39zm.771-.79l-.78.78-4.531-4.53c-.269-.268-.65-.377-1.02-.29-.37.087-.663.354-.784.714l-.808 2.407-3.453-9.676 9.677 3.453-2.407.808c-.361.121-.628.414-.715.784-.087.37.022.752.291 1.02l4.53 4.53z"/>
</svg>
