<svg xmlns="http://www.w3.org/2000/svg" width="28" height="28">
    <path fill="none" fill-rule="evenodd" d="M0 0h28v28H0V0z" opacity=".2"/>
    <path fill="#505050" fill-rule="evenodd" d="M6.342 18.982c.138 0 .264-.077.318-.202.039-.091 1.029-2.253 4.731-2.681.771-.091 1.694-.138 2.815-.146v2.694c0 .125.07.237.183.297.113.057.248.049.352-.019l7.112-4.66c.095-.063.152-.168.152-.278 0-.112-.057-.213-.152-.279l-7.115-4.66c-.104-.071-.238-.075-.352-.017-.114.059-.182.172-.182.293v2.508C12.657 12.028 6 13.193 6 18.65c0 .159.114.297.275.329.023.003.046.003.067.003z"/>
</svg>
