<svg xmlns="http://www.w3.org/2000/svg" width="28" height="28">
    <path fill="none" fill-rule="evenodd" d="M0 0h28v28H0V0z" opacity=".2"/>
    <path fill="#505050" fill-rule="evenodd" d="M21.658 18.982c-.138 0-.264-.077-.318-.202-.039-.091-1.029-2.253-4.731-2.681-.771-.091-1.694-.138-2.816-.146v2.694c0 .125-.069.237-.182.297-.113.057-.247.049-.353-.019l-7.111-4.66c-.096-.063-.152-.168-.152-.278 0-.112.056-.213.152-.279l7.115-4.66c.104-.071.238-.076.352-.017.114.059.182.172.182.293v2.508c1.547.196 8.204 1.36 8.204 6.818 0 .159-.115.297-.275.329-.023.003-.046.003-.067.003z"/>
</svg>
